<svg width="31" height="46" viewBox="0 0 31 46" fill="none" xmlns="http://www.w3.org/2000/svg">
<g filter="url(#filter0_d_39_190)">
<path d="M4.55039 38V1.65H26.3504V6.8H11.7004V38H4.55039ZM13.6004 21.45C13.8171 20.7167 14.1254 19.9583 14.5254 19.175C14.9421 18.3917 15.4837 17.7333 16.1504 17.2C16.8171 16.6667 17.6337 16.4 18.6004 16.4H24.6504V21.45H13.6004Z" fill="white"/>
<path d="M4.55039 38V1.65H26.3504V6.8H11.7004V38H4.55039ZM13.6004 21.45C13.8171 20.7167 14.1254 19.9583 14.5254 19.175C14.9421 18.3917 15.4837 17.7333 16.1504 17.2C16.8171 16.6667 17.6337 16.4 18.6004 16.4H24.6504V21.45H13.6004Z" fill="url(#paint0_linear_39_190)"/>
</g>
<defs>
<filter id="filter0_d_39_190" x="0.550293" y="1.6499" width="29.8" height="44.3501" filterUnits="userSpaceOnUse" color-interpolation-filters="sRGB">
<feFlood flood-opacity="0" result="BackgroundImageFix"/>
<feColorMatrix in="SourceAlpha" type="matrix" values="0 0 0 0 0 0 0 0 0 0 0 0 0 0 0 0 0 0 127 0" result="hardAlpha"/>
<feOffset dy="4"/>
<feGaussianBlur stdDeviation="2"/>
<feComposite in2="hardAlpha" operator="out"/>
<feColorMatrix type="matrix" values="0 0 0 0 0 0 0 0 0 0 0 0 0 0 0 0 0 0 0.25 0"/>
<feBlend mode="normal" in2="BackgroundImageFix" result="effect1_dropShadow_39_190"/>
<feBlend mode="normal" in="SourceGraphic" in2="effect1_dropShadow_39_190" result="shape"/>
</filter>
<linearGradient id="paint0_linear_39_190" x1="21.11" y1="-39.0404" x2="-17.3999" y2="2.92903" gradientUnits="userSpaceOnUse">
<stop stop-color="#C20BFF"/>
<stop offset="1" stop-color="#FF8000"/>
</linearGradient>
</defs>
</svg>
