<svg width="115" height="26" viewBox="0 0 115 26" fill="none" xmlns="http://www.w3.org/2000/svg">
<path d="M0.936 19.5C0.722667 19.5 0.530667 19.4253 0.36 19.276C0.210667 19.1053 0.136 18.9133 0.136 18.7V3.18C0.136 2.94533 0.210667 2.75333 0.36 2.604C0.530667 2.45467 0.722667 2.38 0.936 2.38H10.056C10.2907 2.38 10.4827 2.45467 10.632 2.604C10.7813 2.75333 10.856 2.94533 10.856 3.18C10.856 3.39333 10.7813 3.58533 10.632 3.756C10.4827 3.90533 10.2907 3.98 10.056 3.98H1.736V10.156H8.424C8.65867 10.156 8.85067 10.2307 9 10.38C9.14933 10.5293 9.224 10.7213 9.224 10.956C9.224 11.1693 9.14933 11.3613 9 11.532C8.85067 11.6813 8.65867 11.756 8.424 11.756H1.736V18.7C1.736 18.9133 1.66133 19.1053 1.512 19.276C1.36267 19.4253 1.17067 19.5 0.936 19.5ZM15.7113 0.396C16.0739 0.396 16.3833 0.545333 16.6393 0.844C16.8953 1.12133 17.0233 1.50533 17.0233 1.996C17.0233 2.48667 16.8953 2.86 16.6393 3.116C16.3833 3.372 16.0846 3.5 15.7433 3.5C15.3593 3.5 15.0286 3.372 14.7513 3.116C14.4953 2.83867 14.3673 2.46533 14.3673 1.996C14.3673 1.50533 14.4953 1.12133 14.7513 0.844C15.0073 0.545333 15.3273 0.396 15.7113 0.396ZM14.9433 7.756C14.9433 7.52133 15.0179 7.32933 15.1673 7.18C15.3379 7.03067 15.5299 6.956 15.7433 6.956C15.9779 6.956 16.1699 7.03067 16.3193 7.18C16.4686 7.32933 16.5433 7.52133 16.5433 7.756V18.7C16.5433 18.9133 16.4686 19.1053 16.3193 19.276C16.1699 19.4253 15.9779 19.5 15.7433 19.5C15.5299 19.5 15.3379 19.4253 15.1673 19.276C15.0179 19.1053 14.9433 18.9133 14.9433 18.7V7.756ZM32.1728 19.5C31.9594 19.5 31.7674 19.4253 31.5968 19.276C31.4474 19.1053 31.3728 18.9133 31.3728 18.7V12.3C31.3728 10.9773 31.1168 10.028 30.6048 9.452C30.1141 8.85467 29.4421 8.556 28.5888 8.556C27.6928 8.556 26.8394 8.80133 26.0288 9.292C25.2181 9.76133 24.4714 10.3373 23.7888 11.02V18.7C23.7888 18.9133 23.7141 19.1053 23.5648 19.276C23.4154 19.4253 23.2234 19.5 22.9888 19.5C22.7754 19.5 22.5834 19.4253 22.4128 19.276C22.2634 19.1053 22.1888 18.9133 22.1888 18.7V7.756C22.1888 7.52133 22.2634 7.32933 22.4128 7.18C22.5834 7.03067 22.7754 6.956 22.9888 6.956C23.2234 6.956 23.4154 7.03067 23.5648 7.18C23.7141 7.32933 23.7888 7.52133 23.7888 7.756V8.908C24.5141 8.332 25.2714 7.86267 26.0608 7.5C26.8501 7.13733 27.6928 6.956 28.5888 6.956C29.3994 6.956 30.1354 7.116 30.7968 7.436C31.4581 7.756 31.9808 8.31067 32.3648 9.1C32.7701 9.868 32.9728 10.9347 32.9728 12.3V18.7C32.9728 18.9133 32.8981 19.1053 32.7488 19.276C32.5994 19.4253 32.4074 19.5 32.1728 19.5ZM48.079 19.5C47.8657 19.5 47.6737 19.4253 47.503 19.276C47.3537 19.1053 47.279 18.9133 47.279 18.7V12.3C47.279 10.9773 47.023 10.028 46.511 9.452C46.0203 8.85467 45.3483 8.556 44.495 8.556C43.599 8.556 42.7457 8.80133 41.935 9.292C41.1243 9.76133 40.3777 10.3373 39.695 11.02V18.7C39.695 18.9133 39.6203 19.1053 39.471 19.276C39.3217 19.4253 39.1297 19.5 38.895 19.5C38.6817 19.5 38.4897 19.4253 38.319 19.276C38.1697 19.1053 38.095 18.9133 38.095 18.7V7.756C38.095 7.52133 38.1697 7.32933 38.319 7.18C38.4897 7.03067 38.6817 6.956 38.895 6.956C39.1297 6.956 39.3217 7.03067 39.471 7.18C39.6203 7.32933 39.695 7.52133 39.695 7.756V8.908C40.4203 8.332 41.1777 7.86267 41.967 7.5C42.7563 7.13733 43.599 6.956 44.495 6.956C45.3057 6.956 46.0417 7.116 46.703 7.436C47.3643 7.756 47.887 8.31067 48.271 9.1C48.6763 9.868 48.879 10.9347 48.879 12.3V18.7C48.879 18.9133 48.8043 19.1053 48.655 19.276C48.5057 19.4253 48.3137 19.5 48.079 19.5Z" fill="#FF8000"/>
<path d="M63.0573 19.212C62.5879 18.7213 62.2253 18.1027 61.9693 17.356C61.2439 18.0387 60.4439 18.572 59.5693 18.956C58.7159 19.3187 57.7879 19.5 56.7853 19.5C55.8039 19.5 55.0253 19.3187 54.4493 18.956C53.8733 18.5933 53.4679 18.1453 53.2333 17.612C52.9986 17.0787 52.8813 16.5773 52.8813 16.108C52.8813 15.596 52.9666 15.1053 53.1373 14.636C53.3293 14.1453 53.6173 13.7187 54.0013 13.356C54.5346 12.8653 55.2493 12.4493 56.1453 12.108C57.0413 11.7667 58.1399 11.596 59.4413 11.596C60.1239 11.596 60.8493 11.628 61.6173 11.692C61.5319 10.732 61.2119 9.97467 60.6573 9.42C60.1026 8.844 59.2706 8.556 58.1613 8.556C57.7346 8.556 57.2973 8.59867 56.8493 8.684C56.4013 8.748 56.0599 8.82267 55.8253 8.908C55.5479 9.01467 55.3453 9.068 55.2173 9.068C55.0039 9.068 54.8119 8.99333 54.6413 8.844C54.4706 8.67333 54.3853 8.492 54.3853 8.3C54.3853 7.89467 54.5666 7.628 54.9293 7.5C55.2919 7.39333 55.7719 7.276 56.3693 7.148C56.9879 7.02 57.5853 6.956 58.1613 6.956C59.9106 6.956 61.1906 7.436 62.0013 8.396C62.8333 9.356 63.2493 10.604 63.2493 12.14V15.052C63.2493 15.7773 63.3239 16.3853 63.4733 16.876C63.6439 17.3453 63.8893 17.7613 64.2093 18.124C64.3586 18.2733 64.4333 18.4547 64.4333 18.668C64.4333 18.8813 64.3479 19.0733 64.1773 19.244C64.0279 19.3933 63.8466 19.468 63.6333 19.468C63.4199 19.468 63.2279 19.3827 63.0573 19.212ZM56.7853 17.9C57.7026 17.9 58.5773 17.6973 59.4093 17.292C60.2413 16.8653 60.9879 16.2253 61.6493 15.372V13.292C60.8599 13.228 60.1239 13.196 59.4413 13.196C57.4146 13.196 55.9853 13.612 55.1533 14.444C54.8973 14.7 54.7159 14.9667 54.6093 15.244C54.5239 15.5213 54.4813 15.8093 54.4813 16.108C54.4813 16.5347 54.6626 16.94 55.0253 17.324C55.4093 17.708 55.9959 17.9 56.7853 17.9ZM68.5995 2.348C68.5995 2.11333 68.6742 1.92133 68.8235 1.772C68.9942 1.62267 69.1862 1.548 69.3995 1.548C69.6342 1.548 69.8262 1.62267 69.9755 1.772C70.1248 1.92133 70.1995 2.11333 70.1995 2.348V18.7C70.1995 18.9133 70.1248 19.1053 69.9755 19.276C69.8262 19.4253 69.6342 19.5 69.3995 19.5C69.1862 19.5 68.9942 19.4253 68.8235 19.276C68.6742 19.1053 68.5995 18.9133 68.5995 18.7V2.348ZM75.173 25.068C74.981 25.068 74.789 24.9933 74.597 24.844C74.4263 24.6947 74.341 24.5133 74.341 24.3C74.341 23.98 74.4797 23.7347 74.757 23.564C75.653 23.052 76.517 22.4333 77.349 21.708C78.181 21.004 78.9917 20.012 79.781 18.732C78.9703 17.452 78.1063 15.9693 77.189 14.284C76.293 12.5987 75.5037 10.8493 74.821 9.036C74.6503 8.54533 74.533 8.22533 74.469 8.076C74.4263 7.90533 74.405 7.77733 74.405 7.692C74.405 7.52133 74.4797 7.35067 74.629 7.18C74.7783 7.00933 74.9597 6.924 75.173 6.924C75.3437 6.924 75.5037 6.97733 75.653 7.084C75.8023 7.16933 75.909 7.29733 75.973 7.468C76.7197 9.53733 77.509 11.372 78.341 12.972C79.173 14.572 79.9517 15.9693 80.677 17.164C81.189 16.2467 81.6903 15.244 82.181 14.156C82.693 13.068 83.1623 11.9587 83.589 10.828C84.037 9.676 84.4103 8.57733 84.709 7.532C84.8157 7.148 85.0717 6.956 85.477 6.956C85.7117 6.956 85.9037 7.04133 86.053 7.212C86.2023 7.36133 86.277 7.54267 86.277 7.756C86.277 7.82 86.2343 7.98 86.149 8.236C86.085 8.492 86.021 8.716 85.957 8.908C85.6583 9.84667 85.2637 10.924 84.773 12.14C84.2823 13.3347 83.749 14.5507 83.173 15.788C82.6183 17.004 82.053 18.1027 81.477 19.084C80.5383 20.684 79.5783 21.9107 78.597 22.764C77.6157 23.6173 76.5917 24.3533 75.525 24.972C75.4397 25.036 75.3223 25.068 75.173 25.068ZM89.8033 19.5C89.5899 19.5 89.3979 19.4253 89.2273 19.276C89.0779 19.1053 89.0033 18.9133 89.0033 18.7C89.0033 18.4653 89.1313 18.2093 89.3873 17.932L97.3553 8.556H90.2833C90.0699 8.556 89.8779 8.48133 89.7073 8.332C89.5579 8.16133 89.4833 7.96933 89.4833 7.756C89.4833 7.52133 89.5579 7.32933 89.7073 7.18C89.8779 7.03067 90.0699 6.956 90.2833 6.956H99.0833C99.2966 6.956 99.4779 7.04133 99.6273 7.212C99.7979 7.36133 99.8833 7.55333 99.8833 7.788C99.8833 7.98 99.8193 8.14 99.6913 8.268L91.4993 17.9H99.4353C99.6699 17.9 99.8619 17.9747 100.011 18.124C100.161 18.2733 100.235 18.4653 100.235 18.7C100.235 18.9133 100.161 19.1053 100.011 19.276C99.8619 19.4253 99.6699 19.5 99.4353 19.5H89.8033ZM110.134 19.5C108.086 19.5 106.433 18.9667 105.174 17.9C103.937 16.8333 103.318 15.3293 103.318 13.388C103.318 12.0867 103.595 10.956 104.15 9.996C104.705 9.036 105.441 8.28933 106.358 7.756C107.297 7.22267 108.331 6.956 109.462 6.956C110.593 6.956 111.542 7.18 112.31 7.628C113.078 8.076 113.654 8.63067 114.038 9.292C114.443 9.95333 114.646 10.604 114.646 11.244C114.646 12.012 114.401 12.6733 113.91 13.228C113.441 13.7827 112.545 14.06 111.222 14.06H104.95C105.121 15.34 105.675 16.3 106.614 16.94C107.574 17.58 108.747 17.9 110.134 17.9C110.667 17.9 111.147 17.8573 111.574 17.772C112.022 17.6867 112.363 17.6013 112.598 17.516C112.833 17.4307 112.982 17.3773 113.046 17.356C113.131 17.3347 113.195 17.324 113.238 17.324C113.451 17.324 113.633 17.4093 113.782 17.58C113.953 17.7293 114.038 17.9107 114.038 18.124C114.038 18.4867 113.867 18.732 113.526 18.86C113.078 19.0307 112.555 19.18 111.958 19.308C111.361 19.436 110.753 19.5 110.134 19.5ZM109.462 8.556C108.331 8.556 107.35 8.91867 106.518 9.644C105.686 10.348 105.174 11.2867 104.982 12.46H111.254C112.47 12.46 113.078 12.0547 113.078 11.244C113.078 10.5827 112.747 9.97467 112.086 9.42C111.425 8.844 110.55 8.556 109.462 8.556Z" fill="white"/>
</svg>
